<svg xmlns="http://www.w3.org/2000/svg" viewBox="0 0 47.4 40"><g fill="#A58C26"><path d="M16.7 39.9c-3.7.7-7.1-2.1-8.9-8.2C5.4 23.6 3.3 21 2.9 16S12 3.8 17.6 7.2s1.1 12.1.6 14.2c-.7 3.3 0 4.5 1.8 7.8 2.6 4.7 1 9.8-3.3 10.7z"></path><circle cx="17.7" cy="3" r="3"></circle><circle cx="11.1" cy="3.8" r="2.1"></circle><circle cx="6.7" cy="5.9" r="1.8"></circle><circle cx="3.5" cy="8.9" r="1.6"></circle><circle cx="1.4" cy="12.4" r="1.4"></circle><path d="M30.7 39.9c3.7.7 7.1-2.1 8.9-8.2 2.4-8.1 4.5-10.7 5-15.7S35.5 3.8 29.9 7.1s-1.1 12.1-.6 14.2c.7 3.3 0 4.5-1.8 7.8-2.6 4.7-1 9.9 3.2 10.8z"></path><circle cx="29.7" cy="3" r="3"></circle><circle cx="36.3" cy="3.8" r="2.1"></circle><circle cx="40.8" cy="5.9" r="1.8"></circle><circle cx="44" cy="8.9" r="1.6"></circle><circle cx="46.1" cy="12.3" r="1.4"></circle></g></svg>